<?xml version="1.0" encoding="iso-8859-1"?>
<!-- Generator: Adobe Illustrator 19.0.0, SVG Export Plug-In . SVG Version: 6.00 Build 0)  -->
<svg version="1.1" id="Capa_1" xmlns="http://www.w3.org/2000/svg" xmlns:xlink="http://www.w3.org/1999/xlink" x="0px" y="0px"
	 viewBox="0 0 509.867 509.867" style="enable-background:new 0 0 509.867 509.867;" xml:space="preserve">
<path style="fill:#FFD15C;" d="M184.533,302.934c-6.4-9.6-10.667-20.267-12.8-30.933H0c3.2,57.6,26.667,110.933,62.933,152.533
	L184.533,302.934z"/>
<path style="fill:#ACB3BA;" d="M171.733,238.933c2.133-11.733,6.4-22.4,12.8-30.933L62.933,85.333
	C26.667,126.933,3.2,180.267,0,238.933H171.733z"/>
<path style="fill:#CDD6E0;" d="M206.933,184.533c9.6-6.4,20.267-10.667,30.933-12.8V0c-57.6,3.2-110.933,26.667-152.533,62.933
	L206.933,184.533z"/>
<path style="fill:#54C0EB;" d="M270.933,0v171.733c11.733,2.133,22.4,6.4,30.933,12.8l122.667-121.6
	C382.933,26.667,329.6,3.2,270.933,0z"/>
<path style="fill:#84DBFF;" d="M325.333,206.933c6.4,9.6,10.667,20.267,12.8,30.933h171.733
	c-3.2-57.6-26.667-110.933-62.933-152.533L325.333,206.933z"/>
<path style="fill:#F8B64C;" d="M238.933,338.133c-11.733-2.133-22.4-6.4-30.933-12.8l-122.667,121.6
	c41.6,36.267,94.933,59.733,152.533,62.933V338.133H238.933z"/>
<path style="fill:#F1543F;" d="M338.133,270.934c-2.133,11.733-6.4,22.4-12.8,30.933l121.6,122.667
	C483.2,382.934,506.667,329.6,509.867,272H338.133V270.934z"/>
<path style="fill:#FF7058;" d="M302.933,325.333c-9.6,6.4-20.267,10.667-30.933,12.8v171.733
	c57.6-3.2,110.933-26.667,152.533-62.933L302.933,325.333z"/>
<g>
</g>
<g>
</g>
<g>
</g>
<g>
</g>
<g>
</g>
<g>
</g>
<g>
</g>
<g>
</g>
<g>
</g>
<g>
</g>
<g>
</g>
<g>
</g>
<g>
</g>
<g>
</g>
<g>
</g>
</svg>
