<?xml version="1.0" encoding="iso-8859-1"?>
<!-- Generator: Adobe Illustrator 19.0.0, SVG Export Plug-In . SVG Version: 6.00 Build 0)  -->
<svg version="1.1" id="Layer_1" xmlns="http://www.w3.org/2000/svg" xmlns:xlink="http://www.w3.org/1999/xlink" x="0px" y="0px"
	 viewBox="0 0 512 512" style="enable-background:new 0 0 512 512;" xml:space="preserve">
<g>
	<path style="fill:#F0C419;" d="M300.138,344.276c0,82.882-67.187,150.069-150.069,150.069S0,427.158,0,344.276
		s67.187-150.069,150.069-150.069S300.138,261.394,300.138,344.276"/>
	<path style="fill:#E64C3C;" d="M406.069,167.724c0,82.882-67.187,150.069-150.069,150.069s-150.069-67.187-150.069-150.069
		S173.118,17.655,256,17.655S406.069,84.842,406.069,167.724"/>
	<path style="fill:#13A085;" d="M512,344.276c0,82.882-67.187,150.069-150.069,150.069s-150.069-67.187-150.069-150.069
		s67.187-150.069,150.069-150.069S512,261.394,512,344.276"/>
</g>
<g>
</g>
<g>
</g>
<g>
</g>
<g>
</g>
<g>
</g>
<g>
</g>
<g>
</g>
<g>
</g>
<g>
</g>
<g>
</g>
<g>
</g>
<g>
</g>
<g>
</g>
<g>
</g>
<g>
</g>
</svg>
